<svg width="200" height="160" viewBox="0 0 200 160" fill="none" xmlns="http://www.w3.org/2000/svg">
  <rect x="20" y="80" width="160" height="8" rx="4" fill="#E2E8F0"/>
  <rect x="40" y="50" width="50" height="35" rx="6" fill="#6366F1" opacity="0.15"/>
  <rect x="45" y="55" width="40" height="4" rx="2" fill="#6366F1" opacity="0.4"/>
  <rect x="45" y="62" width="30" height="3" rx="1.5" fill="#6366F1" opacity="0.3"/>
  <rect x="110" y="55" width="50" height="28" rx="6" fill="#8B5CF6" opacity="0.15"/>
  <rect x="115" y="60" width="40" height="4" rx="2" fill="#8B5CF6" opacity="0.4"/>
  <rect x="115" y="67" width="25" height="3" rx="1.5" fill="#8B5CF6" opacity="0.3"/>
  <circle cx="160" cy="40" r="15" fill="#10B981" opacity="0.15"/>
  <path d="M154 40L158 44L166 36" stroke="#10B981" stroke-width="2" stroke-linecap="round" stroke-linejoin="round"/>
  <rect x="30" y="100" width="60" height="4" rx="2" fill="#E2E8F0"/>
  <rect x="30" y="108" width="45" height="3" rx="1.5" fill="#E2E8F0"/>
  <rect x="110" y="100" width="60" height="4" rx="2" fill="#E2E8F0"/>
  <rect x="110" y="108" width="50" height="3" rx="1.5" fill="#E2E8F0"/>
</svg>
