<svg width="200" height="160" viewBox="0 0 200 160" fill="none" xmlns="http://www.w3.org/2000/svg">
  <rect x="50" y="30" width="100" height="110" rx="8" fill="#8B5CF6" opacity="0.1"/>
  <rect x="60" y="45" width="80" height="20" rx="4" fill="#8B5CF6" opacity="0.2"/>
  <circle cx="75" cy="55" r="5" fill="#8B5CF6" opacity="0.4"/>
  <rect x="85" y="52" width="40" height="6" rx="3" fill="#8B5CF6" opacity="0.3"/>
  <rect x="60" y="72" width="80" height="20" rx="4" fill="#8B5CF6" opacity="0.15"/>
  <circle cx="75" cy="82" r="5" fill="#8B5CF6" opacity="0.3"/>
  <rect x="85" y="79" width="40" height="6" rx="3" fill="#8B5CF6" opacity="0.2"/>
  <rect x="60" y="99" width="80" height="20" rx="4" fill="#8B5CF6" opacity="0.1"/>
  <circle cx="75" cy="109" r="5" fill="#8B5CF6" opacity="0.2"/>
  <rect x="85" y="106" width="40" height="6" rx="3" fill="#8B5CF6" opacity="0.15"/>
  <path d="M165 50L170 60L180 65L170 70L165 80L160 70L150 65L160 60L165 50Z" fill="#8B5CF6" opacity="0.5"/>
</svg>
